<svg height="32" viewBox="0 0 32 32" width="32" xmlns="http://www.w3.org/2000/svg"><path d="m31.5183304 11.687513c.0256 0 .064 0 .0768-.0384.0128-.0128.0128-.0256.0128-.0384 0-.0254608-.0128-.0512-.0384-.064s-.0512-.0128-.0896-.0128h-.0256v.1406609h.064m-.0384-.2045217c.064 0 .1024 0 .128.0128.0894609.0256.0894609.1150608.0894609.1406608v.0382609c0 .0257391-.0128.064-.064.0896 0 0-.0128.0128-.0254609.0128l.1150609.2045218h-.1150609l-.0896-.1918609h-.064v.1918609h-.1021217v-.4986435zm.0384.7033043c.2429218 0 .4475826-.1918608.4475826-.4475826 0-.2557217-.1918608-.4475826-.4475826-.4475826-.2429217 0-.4475826.2046609-.4475826.4475826 0 .2429218.2046609.4475826.4475826.4475826m-.3451826-.4475826c0-.1918609.1533218-.3451826.3579826-.3451826.1918609 0 .3451826.1533217.3451826.3451826s-.1533217.3453218-.3451826.3453218c-.2046608.0128-.3579826-.1534609-.3579826-.3453218m-3.1070608 2.8513391c-.5882435 0-1.086887-.3963826-1.2402087-.933426h3.2603826l.4475826-.7031653h-3.7079652c.1533217-.5370434.6519652-.933426 1.2402087-.933426h2.2376347l.4474435-.7033044h-2.7362782c-1.099687 0-1.9819131.8951652-1.9819131 1.981913 0 1.099687.8950261 1.9819131 1.9819131 1.9819131h2.3528347l.4473044-.7031652h-2.7489391m-9.3341218.7031652h2.3654957l.4474434-.7031652h-2.7489391c-.7161043 0-1.2915478-.5754435-1.2915478-1.2787479 0-.7159652.5754435-1.2786086 1.2915478-1.2786086h2.2376348l.4475826-.7033044h-2.7362783c-1.099826 0-1.994713.8951652-1.994713 1.981913 0 1.099687.894887 1.9819131 1.9817739 1.9819131m-14.4869565-.6905044h-2.21203479c-.70316521 0-1.27860869-.5753043-1.27860869-1.2786087 0-.7159652.57544348-1.2786086 1.27860869-1.2786086h2.19923479c.71596521 0 1.29140869.5753043 1.29140869 1.2786086 0 .7033044-.57544348 1.2786087-1.27860869 1.2786087m-2.26323479.6905044h2.30163479c1.09954782 0 1.98177391-.8822261 1.98177391-1.9819131 0-1.0995478-.88222609-1.981913-1.98177391-1.981913h-2.30163479c-1.08674782 0-1.98177391.8951652-1.98177391 1.981913 0 1.099687.89502609 1.9819131 1.98177391 1.9819131m8.04271309-1.2786087c.7415652 0 1.3424695-.6009044 1.3424695-1.3426087s-.6009043-1.3426087-1.3424695-1.3426087h-3.33732178v3.9638261h.76730435v-3.2605217h2.51895652c.35798261 0 .63916521.2813217.63916521.6393043 0 .3581217-.2811826.6393043-.63916521.6393043h-2.14831305l2.27617396 1.9819131h1.1123478l-1.53446958-1.2914087h.34532178m12.6201043.6009043v-3.2733217h-.7671652v3.5930435c0 .1022609.0385391.1917217.1150609.2685217.0766608.0768.1789217.1150609.2813217.1150609h3.4779826l.4474435-.7033044zm-9.3339826-.7031652h2.0329739l-1.0739478-1.7389913-1.9820522 3.1326609h-.9078261l2.4038957-3.7591652c.1022608-.1534609.2813217-.2429218.4731826-.2429218.1917217 0 .3579826.0894609.4602435.2429218l2.4165565 3.7719652h-.894887l-.4219826-.7033044h-2.0585739z"/><path d="m.371 17.659h1.01l1.227 2.57v-2.57h.653v3.273h-.96l-1.265-2.724v2.711h-.665z"/><path d="m4.002 17.659h2.187v.537h-1.484v.78h1.394v.537h-1.394v.882h1.535v.537h-2.238z"/><path d="m7.595 18.196h-.972v-.537h2.66v.537h-.972v2.736h-.703v-2.736z"/><path d="m10.1267478 19.9730087c.0128.2301217.0384.6521043.7926261.6521043.6777044 0 .7673044-.4219826.7673044-.5881043 0-.3707826-.2939826-.4347826-.7543653-.5498435-.4987826-.1278609-.7159652-.1790609-.8823652-.2941217-.26838258-.1790609-.34518258-.4219826-.34518258-.6393044 0-.6649043.62664348-.9588869 1.24034778-.9588869.2173218 0 .6519653.0382608.9206261.3195826.1789218.2046609.1917218.4219826.2045218.5626435h-.4731826c-.0254609-.4093218-.3707826-.4987826-.6903653-.4987826-.4474434 0-.7289043.2046608-.7289043.5242434 0 .2941218.1918609.3835826.5882435.4859826.7799652.2045218.8695652.2173218 1.0612869.3451826.3069218.2046609.3197218.5114435.3197218.6521044 0 .5753043-.4475826 1.022887-1.2915479 1.022887-.2429217 0-.754226-.0382609-1.00994778-.3707827-.19186087-.2429217-.19186087-.4986434-.19186087-.6649043z" fill="#1a1919"/><path d="m13.3234087 17.658713v2.020174c0 .3453217.0766609.4986434.1405217.5882434.2046609.2685218.5242435.3195826.7417044.3195826.8822261 0 .8822261-.6903652.8822261-.9332869v-1.9947131h.4346434v2.020174c0 .1790608 0 .5370434-.2683826.869426-.3197217.4093218-.8183652.4475827-1.0612869.4475827-.3069218 0-.8566261-.0894609-1.1507478-.5241044-.1022609-.1408-.1918609-.3325217-.1918609-.8183652v-1.9947131z"/><path d="m16.469 20.932h.447v-3.273h-.447z"/><path d="m18.681 20.932v-2.89h-1.1v-.383h2.634v.383h-1.099v2.89z"/><path d="m20.765 17.659h2.046v.383h-1.598v1.023h1.521v.384h-1.521v1.087h1.636v.396h-2.084z"/></svg>